<svg width="240" height="40" viewBox="0 0 240 40" fill="none" xmlns="http://www.w3.org/2000/svg">
<g clip-path="url(#clip0_73_32)">
<path d="M58.828 25.5681C58.1635 26.2516 57.3384 26.7577 56.428 27.0401C55.3108 27.4225 54.1367 27.6119 52.956 27.6001C51.02 27.6001 49.4733 27.0081 48.316 25.8241C47.1587 24.6401 46.54 22.9921 46.46 20.8801V19.6001C46.4285 18.288 46.6909 16.9856 47.228 15.7881C47.6961 14.7497 48.4653 13.876 49.436 13.2801C50.4392 12.68 51.5913 12.375 52.76 12.4001C54.6053 12.4001 56.036 12.8214 57.052 13.6641C58.068 14.5067 58.66 15.7641 58.828 17.4361H55.396C55.3486 16.7702 55.0649 16.1432 54.596 15.6681C54.1049 15.2878 53.4918 15.1001 52.872 15.1401C52.4609 15.1323 52.0551 15.2337 51.696 15.434C51.3369 15.6343 51.0374 15.9262 50.828 16.2801C50.34 17.0374 50.0933 18.1201 50.088 19.5281V20.4201C50.088 21.8947 50.34 23.0041 50.844 23.7481C51.348 24.4921 52.1413 24.8627 53.224 24.8601C53.9677 24.9178 54.7062 24.6968 55.296 24.2401V21.9441H52.816V19.4961H58.828V25.5681Z" fill="white"/>
<path d="M66.7881 27.396H63.2279V12.5961H66.7841L66.7881 27.396Z" fill="white"/>
<path d="M83.448 25.5681C82.7836 26.2516 81.9584 26.7576 81.048 27.0401C79.9308 27.4225 78.7567 27.6119 77.576 27.6001C75.64 27.6001 74.0934 27.0081 72.936 25.8241C71.7787 24.6401 71.1574 22.9921 71.072 20.8801V19.6C71.0418 18.2877 71.3056 16.9852 71.844 15.788C72.3069 14.7538 73.0672 13.8807 74.028 13.28C75.0314 12.6804 76.1834 12.3754 77.352 12.4C79.1947 12.4 80.6253 12.8214 81.644 13.664C82.6626 14.5067 83.256 15.764 83.424 17.436H79.992C79.9446 16.7702 79.6609 16.1432 79.192 15.668C78.7009 15.2878 78.0878 15.1 77.468 15.14C77.0522 15.1272 76.6406 15.2263 76.2762 15.4268C75.9117 15.6273 75.6077 15.922 75.396 16.28C74.908 17.0374 74.6614 18.12 74.656 19.528V20.4201C74.656 21.8947 74.908 23.0041 75.412 23.7481C75.916 24.4921 76.716 24.8627 77.812 24.8601C78.5557 24.9178 79.2943 24.6968 79.884 24.2401V21.9441H77.404V19.496H83.448V25.5681Z" fill="white"/>
<path d="M95.9959 24.6361H91.1119L90.2599 27.396H86.4519L91.8719 12.5961H95.2279L100.688 27.396H96.8639L95.9959 24.6361ZM91.9639 21.8841H95.1639L93.5639 16.7561L91.9639 21.8841Z" fill="white"/>
<path d="M108.028 23.376L110.972 12.612H114.952L109.98 27.412H106.08L101.144 12.612H105.096L108.028 23.376Z" fill="white"/>
<path d="M127.26 21.1241H121.66V24.6561H128.28V27.396H118.088V12.5961H128.292V15.3481H121.652V18.4681H127.252L127.26 21.1241Z" fill="white"/>
<path d="M137.296 22.1681H135.368V27.396H131.804V12.5961H137.628C139.38 12.5961 140.751 12.9854 141.74 13.7641C142.231 14.156 142.622 14.6596 142.879 15.2329C143.137 15.8061 143.253 16.4326 143.22 17.0601C143.254 17.9536 143.038 18.8388 142.596 19.6161C142.12 20.3431 141.441 20.9147 140.644 21.2601L143.728 27.228V27.38H139.908L137.296 22.1681ZM135.368 19.4281H137.628C137.906 19.4485 138.185 19.4114 138.448 19.3192C138.711 19.227 138.952 19.0816 139.156 18.8921C139.49 18.465 139.672 17.9383 139.672 17.3961C139.672 16.8538 139.49 16.3272 139.156 15.9001C138.954 15.7088 138.715 15.5616 138.453 15.4679C138.192 15.3742 137.913 15.3362 137.636 15.3561H135.38L135.368 19.4281Z" fill="white"/>
<path d="M154.676 23.4678C154.684 23.2382 154.638 23.01 154.541 22.8015C154.444 22.593 154.3 22.4102 154.12 22.2678C153.522 21.8679 152.867 21.5629 152.176 21.3639C151.399 21.1149 150.64 20.8128 149.904 20.4599C147.987 19.5212 147.028 18.2292 147.028 16.5839C147.012 15.7958 147.265 15.0258 147.744 14.3999C148.272 13.7347 148.974 13.2281 149.772 12.9359C150.711 12.5763 151.71 12.3998 152.716 12.4159C153.697 12.3989 154.671 12.5926 155.572 12.9839C156.368 13.3171 157.051 13.8726 157.54 14.5839C158.008 15.2955 158.252 16.1318 158.24 16.9839H154.684C154.699 16.7244 154.658 16.4646 154.563 16.2228C154.467 15.981 154.32 15.7629 154.132 15.5839C153.714 15.2339 153.18 15.0552 152.636 15.0839C152.1 15.0526 151.569 15.2019 151.128 15.5079C150.955 15.6269 150.814 15.7865 150.717 15.9727C150.62 16.1588 150.57 16.366 150.572 16.5759C150.583 16.7844 150.645 16.9871 150.752 17.1667C150.858 17.3463 151.006 17.4977 151.184 17.6079C151.844 18.0346 152.566 18.3571 153.324 18.5639C154.198 18.8284 155.043 19.1837 155.844 19.6239C157.444 20.5439 158.244 21.8132 158.244 23.4318C158.267 24.0203 158.146 24.6055 157.891 25.1362C157.636 25.6669 157.254 26.1269 156.78 26.4758C155.808 27.2158 154.468 27.5838 152.78 27.5838C151.661 27.5991 150.552 27.3798 149.524 26.9398C148.635 26.5873 147.869 25.9824 147.32 25.1998C146.822 24.4311 146.566 23.5313 146.584 22.6158H150.156C150.129 22.9348 150.169 23.256 150.276 23.558C150.382 23.8601 150.551 24.1361 150.772 24.3678C151.18 24.7438 151.846 24.9318 152.772 24.9318C153.268 24.9519 153.757 24.8116 154.168 24.5318C154.333 24.4091 154.465 24.2481 154.553 24.0627C154.642 23.8773 154.684 23.6731 154.676 23.4678Z" fill="white"/>
<path d="M171.316 21.1241H165.716V24.6561H172.34V27.396H162.144V12.5961H172.352V15.3481H165.708V18.4681H171.308L171.316 21.1241Z" fill="white"/>
<path d="M188.66 24.6561H194.864V27.396H185.096V12.5961H188.66V24.6561Z" fill="white"/>
<path d="M206.64 24.6361H201.756L200.904 27.396H197.096L202.52 12.5961H205.868L211.332 27.396H207.504L206.64 24.6361ZM202.612 21.8841H205.788L204.188 16.7561L202.612 21.8841Z" fill="white"/>
<path d="M214.088 27.3961V12.5961H219.4C221.301 12.5961 222.748 12.9454 223.74 13.6441C224.228 13.9831 224.621 14.4417 224.882 14.9761C225.142 15.5104 225.261 16.1026 225.228 16.6961C225.248 17.3871 225.064 18.0686 224.7 18.6561C224.326 19.2153 223.78 19.6367 223.144 19.8561C223.85 20.0176 224.479 20.4208 224.92 20.9961C225.346 21.5845 225.564 22.298 225.54 23.0241C225.54 24.4721 225.084 25.5601 224.164 26.2881C223.244 27.0161 221.888 27.3881 220.088 27.4001L214.088 27.3961ZM217.652 18.7761H219.512C220.099 18.823 220.684 18.6723 221.176 18.3481C221.347 18.194 221.48 18.003 221.566 17.7895C221.652 17.576 221.688 17.3457 221.672 17.1161C221.695 16.8651 221.659 16.6121 221.565 16.3779C221.472 16.1436 221.325 15.9347 221.136 15.7681C220.614 15.4546 220.006 15.3146 219.4 15.3681H217.652V18.7761ZM217.652 21.1121V24.6561H219.988C220.519 24.6916 221.044 24.5339 221.468 24.2121C221.643 24.0586 221.781 23.8671 221.871 23.6522C221.961 23.4373 222.001 23.2047 221.988 22.9721C221.988 21.7401 221.375 21.1201 220.148 21.1121H217.652Z" fill="white"/>
<path d="M236.428 23.4681C236.436 23.2389 236.39 23.0111 236.294 22.8027C236.199 22.5944 236.055 22.4113 235.876 22.2681C235.277 21.8691 234.62 21.5642 233.928 21.3641C233.141 21.1091 232.373 20.8004 231.628 20.4401C229.713 19.5015 228.755 18.2095 228.752 16.5641C228.744 15.7814 229.001 15.0191 229.48 14.4001C230.009 13.7358 230.711 13.2295 231.508 12.9361C232.447 12.5765 233.447 12.4 234.452 12.4161C235.435 12.3992 236.41 12.5929 237.312 12.9841C238.107 13.3184 238.788 13.8737 239.276 14.5841C239.745 15.2958 239.989 16.132 239.976 16.9841H236.428C236.44 16.7267 236.397 16.4696 236.3 16.2307C236.203 15.9918 236.056 15.7767 235.868 15.6001C235.451 15.2501 234.916 15.0714 234.372 15.1001C233.836 15.0688 233.305 15.2181 232.864 15.5241C232.691 15.6431 232.55 15.8027 232.453 15.9889C232.356 16.1751 232.306 16.3822 232.308 16.5921C232.32 16.8007 232.381 17.0033 232.488 17.183C232.594 17.3626 232.743 17.5139 232.92 17.6241C233.58 18.0509 234.302 18.3734 235.06 18.5801C235.935 18.844 236.78 19.1993 237.58 19.6401C239.18 20.5601 239.98 21.8295 239.98 23.4481C240.004 24.0366 239.883 24.6218 239.628 25.1525C239.372 25.6832 238.991 26.1432 238.516 26.4921C237.544 27.2321 236.204 27.6001 234.516 27.6001C233.398 27.6155 232.289 27.3961 231.26 26.9561C230.37 26.598 229.604 25.9877 229.056 25.2001C228.559 24.4314 228.302 23.5316 228.32 22.6161H231.892C231.865 22.9351 231.906 23.2563 232.012 23.5583C232.118 23.8604 232.287 24.1364 232.508 24.3681C232.908 24.7441 233.584 24.9321 234.508 24.9321C235.004 24.9522 235.494 24.8119 235.904 24.5321C236.072 24.4112 236.207 24.2509 236.299 24.0654C236.39 23.8799 236.435 23.6748 236.428 23.4681Z" fill="white"/>
<path d="M13.44 20C13.44 21.029 13.8488 22.0159 14.5764 22.7436C15.304 23.4712 16.2909 23.88 17.32 23.88H26.8799V25.52L17.32 31.04L7.75998 25.52V14.48L17.32 8.96L24.9199 13.36C25.5364 13.7168 26.2394 13.8966 26.9514 13.8796C27.6635 13.8627 28.3571 13.6497 28.9559 13.264L34.6399 10L17.32 0L0 10V30L17.32 40L34.6399 30V16.12H17.32C16.2909 16.12 15.304 16.5288 14.5764 17.2564C13.8488 17.9841 13.44 18.971 13.44 20Z" fill="white"/>
</g>
<defs>
<clipPath id="clip0_73_32">
<rect width="239.976" height="40" fill="white"/>
</clipPath>
</defs>
</svg>
